<svg xmlns="http://www.w3.org/2000/svg" viewBox="0 0 172.12 172.12">
  <style>.cls-4{fill:#865931;}.cls-2{fill:#eda532;}.cls-2,.cls-3,.cls-4{fill-rule:evenodd;}.cls-3{fill:#009640;}</style>
  <g transform="translate(-112 -390.34)">
    <path class="cls-2" d="M131.41,429.34c-0.85,3.82-1,23.29-.41,27.91,1.73,13.58,20.47,12.52,20.6-.83,0.4-8.88-.37-20.25,2.82-26.77C162,414.22,180.13,410.83,196,411l1.28,0,1.28,0c15.83-.2,34,3.19,41.53,18.62,3.19,6.51,2.43,17.89,2.82,26.77,0.13,13.34,18.87,14.41,20.6.83,0.59-4.62.44-24.09-.41-27.91-5.43-24.53-34.57-39-65.62-39H197c-31.05,0-60.19,14.47-65.62,39h0Z"/>
    <path class="cls-3" d="M138.25,477.6H254.38a7.76,7.76,0,0,1,7.73,7.73h0a7.76,7.76,0,0,1-7.73,7.73H138.25a7.76,7.76,0,0,1-7.73-7.73h0a7.76,7.76,0,0,1,7.73-7.73h0Z"/>
    <path class="cls-4" d="M140.62,506.75H252a10.14,10.14,0,0,1,10.11,10.11h0A10.14,10.14,0,0,1,252,527H140.62a10.14,10.14,0,0,1-10.11-10.11h0a10.14,10.14,0,0,1,10.11-10.11h0Z"/>
    <path class="cls-2" d="M140.62,542.24H252a10.14,10.14,0,0,1,10.11,10.11h0A10.14,10.14,0,0,1,252,562.46H140.62a10.14,10.14,0,0,1-10.11-10.11h0a10.14,10.14,0,0,1,10.11-10.11h0Z"/>
  </g>
</svg>
