<svg id="Слой_1" data-name="Слой 1" xmlns="http://www.w3.org/2000/svg" viewBox="0 0 349.26 172.12"><defs><style>.cls-1,.cls-4{fill:#865931}.cls-2{fill:#eda532}.cls-2,.cls-3,.cls-4{fill-rule:evenodd}.cls-3{fill:#009640}</style></defs><title>logo</title><path class="cls-1" d="M378.76 425.39a12.09 12.09 0 0 0-4.59-2.63 22.8 22.8 0 0 0-7.49-1.06q-4.47 0-6.54 1.4a12.54 12.54 0 0 0-3.75 4.42L340.73 455l-8.39-26.73a7.37 7.37 0 0 0-5.26-5.31 42.29 42.29 0 0 0-11.3-1.17q-8.28 0-11.75 1.4a5 5 0 0 0-3.47 5 8.84 8.84 0 0 0 .22 2.12 7.91 7.91 0 0 0 .78 1.9l5.71.22-.34 2.46q-.34 2.46-.84 6t-1.09 7.55q-.56 4-.89 7-1.23 9.84-1.85 15.21t-.62 6.94a5.44 5.44 0 0 0 1.34 4.08q1.34 1.29 5.26 1.29a20.62 20.62 0 0 0 3.13-.22 24.26 24.26 0 0 0 2.68-.56l5.15-39.82 8.5 28.75a5.59 5.59 0 0 0 2.35 3.36 9.13 9.13 0 0 0 4.47.89 19 19 0 0 0 8.17-1.68L361 442.17l-.17 1.23q-.17 1.23-.5 3.41t-.78 5q-.45 2.85-.89 6-.67 4.92-1.17 8.45t-.78 5.93q-.28 2.4-.39 3.75t-.11 2a4.4 4.4 0 0 0 1.68 3.8q1.68 1.23 5.59 1.23a25.94 25.94 0 0 0 4.47-.39 17.31 17.31 0 0 0 3.8-1.06l5.82-47.88 1.23-8.28zM435.81 475.73a4.59 4.59 0 0 0-1.68-3.8 14.11 14.11 0 0 1-2.07.34q-1.17.11-2 .11a2 2 0 0 1-1.62-.5 2.23 2.23 0 0 1-.39-1.4q0-1 .11-2.68t.56-4.59l3.28-24.84a17.52 17.52 0 0 0-9.06-2.13 10.07 10.07 0 0 0-3.86.67 4.18 4.18 0 0 0-2.29 2.91 8.37 8.37 0 0 0-4.19-2.68 22.8 22.8 0 0 0-6.43-.78 22.15 22.15 0 0 0-8.78 1.79 20.13 20.13 0 0 0-7.38 5.48 27 27 0 0 0-5 9.23 40.9 40.9 0 0 0-1.85 12.92q0 9.06 4 13.26t12.08 4.19a19.79 19.79 0 0 0 8.95-1.9 12.09 12.09 0 0 0 5.71-6.26 7.07 7.07 0 0 0-.17 1q-.06.56-.06.78 0 3.58 2 5a8.52 8.52 0 0 0 5.2 1.45q7 0 11-1.85t4-5.76zm-20.58-28.19L412 469.91a8.07 8.07 0 0 1-6.26 2.57 6.51 6.51 0 0 1-5.15-1.9q-1.68-1.9-1.68-6.94 0-8.39 3.08-12.64a9.65 9.65 0 0 1 8.22-4.25q1.34 0 2.63.11a6.6 6.6 0 0 1 2.41.67zM479.77 443.63a7.9 7.9 0 0 0-.56-3 5.27 5.27 0 0 0-2.07-2.41 11.94 11.94 0 0 0-4-1.57 31.15 31.15 0 0 0-6.54-.56 33.46 33.46 0 0 0-11.49 1.91 23.06 23.06 0 0 0-14.21 14 32.87 32.87 0 0 0-2 11.75q0 10.63 5.31 15.16t15.49 4.53q9.51 0 13.65-2.41t4.14-6.66a7.53 7.53 0 0 0-.56-2.68 3.44 3.44 0 0 0-1.79-2 33.72 33.72 0 0 1-11.48 2.31q-4.47 0-6.32-2.24T455.5 462q0-7.61 3.3-11.19t9.34-3.58a35.69 35.69 0 0 1 5.31.34 31.44 31.44 0 0 1 4.08.9 6.27 6.27 0 0 0 1.68-2 6.15 6.15 0 0 0 .56-2.85zM349.45 503.54a10 10 0 0 0-.34-2.52 6.2 6.2 0 0 0-1-2.18l-7.83.11h-31q-4.7 0-6.82 1.68a5.41 5.41 0 0 0-2.13 4.47 10.56 10.56 0 0 0 .22 2.18 6 6 0 0 0 .78 2l6.15.22q0 .22-.28 2.29t-.73 5.59q-.45 3.52-1 7.16t-1 6.82l-.67 4.75q-.9 7.16-1.34 11.41t-.32 5.48q0 3.8 1.57 5.37t6.15 1.57a30.69 30.69 0 0 0 4.59-.28 33.75 33.75 0 0 0 3.8-.84L321 536h1.9q1.68 0 4.87.06t6.32.06q3.92 0 5.87-1.85a6.8 6.8 0 0 0 2-5.2 11.59 11.59 0 0 0-.17-1.9 7.58 7.58 0 0 0-.73-2.13h-18.68l1.9-14.88 2.35.06q2.35.06 5.15.06t5.43.06l2.74.06q9.51 0 9.51-6.82zM377.75 498.4a7.32 7.32 0 0 0-1.85-5.15q-1.85-2-5.76-2a9.57 9.57 0 0 0-7 2.46 8.12 8.12 0 0 0-2.52 6q0 4.14 2.35 5.54a10.51 10.51 0 0 0 5.48 1.4 9.62 9.62 0 0 0 6.82-2.29 7.8 7.8 0 0 0 2.46-6zm-1.9 54a4.36 4.36 0 0 0-1.79-3.69 17.9 17.9 0 0 1-2.18.34q-1.17.11-2 .11a1.51 1.51 0 0 1-1.34-.5 1.89 1.89 0 0 1-.34-1.06 22 22 0 0 1 .5-3.69q.5-2.57 1.06-6.49l2.62-17.42a9.83 9.83 0 0 0 0-3 3.7 3.7 0 0 0-1.12-2.13 5.58 5.58 0 0 0-2.63-1.23 21.26 21.26 0 0 0-4.53-.39q-7.49 0-10.91 1.51a5.28 5.28 0 0 0-3.41 5.2 9.78 9.78 0 0 0 .22 2.13 4.94 4.94 0 0 0 .89 1.9l5.15-.11-3.8 21.81q-.22 1.79-.45 3.86a33.6 33.6 0 0 0-.22 3.52 6.08 6.08 0 0 0 2.29 5.26 10.73 10.73 0 0 0 6.44 1.67q8.17 0 11.86-1.85a6.07 6.07 0 0 0 3.69-5.76zM416.91 517.78a10.1 10.1 0 0 0-.28-2.14 7.53 7.53 0 0 0-.73-2h-13.54l1.57-11.3a9.44 9.44 0 0 0-3.47-1.4 18.94 18.94 0 0 0-4.14-.5q-4.92 0-6.71 1.57t-2.24 5.15l-.78 6.38c-2.83.15-4.87.69-6.1 1.64s-1.85 2.5-1.85 4.7a11.22 11.22 0 0 0 .28 2.31 4.71 4.71 0 0 0 1 2.09h5.26l-2.46 18.07a33.08 33.08 0 0 0-.28 9 10 10 0 0 0 2.29 5.43 9.39 9.39 0 0 0 4.87 2.67 32.79 32.79 0 0 0 7.44.73q9.06 0 13.37-2.18t4.31-6.1a6.18 6.18 0 0 0-.67-2.8 5.25 5.25 0 0 0-1.9-2.13 38.89 38.89 0 0 1-4.92 1.17 28.51 28.51 0 0 1-4.7.39 3.92 3.92 0 0 1-3.13-1.06c-.6-.71-.82-1.9-.67-3.62l2.24-19.59q2.46.22 4.31.28t4.19.06c2.91 0 4.88-.63 5.93-1.92a7.47 7.47 0 0 0 1.57-4.87z" transform="translate(-130.51 -390.34)"/><path class="cls-2" d="M131.41 429.34c-.85 3.82-1 23.29-.41 27.91 1.73 13.58 20.47 12.52 20.6-.83.4-8.88-.37-20.25 2.82-26.77C162 414.22 180.13 410.83 196 411h2.56c15.83-.2 34 3.19 41.53 18.62 3.19 6.51 2.43 17.89 2.82 26.77.13 13.34 18.87 14.41 20.6.83.59-4.62.44-24.09-.41-27.91-5.43-24.53-34.57-39-65.62-39H197c-31.05 0-60.19 14.47-65.62 39z" transform="translate(-130.51 -390.34)"/><path class="cls-3" d="M138.25 477.6h116.13a7.76 7.76 0 0 1 7.73 7.73 7.76 7.76 0 0 1-7.73 7.73H138.25a7.76 7.76 0 0 1-7.73-7.73 7.76 7.76 0 0 1 7.73-7.73z" transform="translate(-130.51 -390.34)"/><path class="cls-4" d="M140.62 506.75H252a10.14 10.14 0 0 1 10.11 10.11A10.14 10.14 0 0 1 252 527H140.62a10.14 10.14 0 0 1-10.11-10.11 10.14 10.14 0 0 1 10.11-10.11z" transform="translate(-130.51 -390.34)"/><path class="cls-2" d="M140.62 542.24H252a10.14 10.14 0 0 1 10.11 10.11A10.14 10.14 0 0 1 252 562.46H140.62a10.14 10.14 0 0 1-10.11-10.11 10.14 10.14 0 0 1 10.11-10.11z" transform="translate(-130.51 -390.34)"/></svg>