<svg xmlns="http://www.w3.org/2000/svg" viewBox="0 0 512 512"><path d="M488.727 186.182H325.818V23.273C325.818 10.418 315.398 0 302.545 0h-93.09c-12.853 0-23.273 10.418-23.273 23.273v162.909H23.273C10.42 186.182 0 196.6 0 209.455v93.091c0 12.853 10.42 23.273 23.273 23.273h162.909v162.909c0 12.853 10.42 23.273 23.273 23.273h93.09c12.853 0 23.273-10.42 23.273-23.273v-162.91h162.909c12.853 0 23.273-10.42 23.273-23.273v-93.091c0-12.854-10.42-23.272-23.273-23.272z" fill="#64c37d"/><path d="M209.455 0c-12.853 0-23.273 10.418-23.273 23.273v162.909H23.273C10.42 186.182 0 196.6 0 209.455v93.091c0 12.853 10.42 23.273 23.273 23.273h162.909v162.909c0 12.853 10.42 23.273 23.273 23.273H256V0h-46.545z" fill="#009640"/></svg>